<svg width="1632" height="700" viewBox="0 0 1632 700" fill="none" xmlns="http://www.w3.org/2000/svg">
<rect width="1632" height="700" fill="#AB9FF2"></rect>
<path d="M713.594 461C747.666 461 773.271 431.414 788.552 408.034C786.694 413.207 785.661 418.379 785.661 423.345C785.661 437 793.508 446.724 808.995 446.724C830.265 446.724 852.979 428.103 864.749 408.034C863.923 410.931 863.51 413.621 863.51 416.103C863.51 425.621 868.879 431.621 879.824 431.621C914.309 431.621 949 370.586 949 317.207C949 275.621 927.937 239 875.074 239C782.151 239 682 352.379 682 425.621C682 454.379 697.487 461 713.594 461ZM843.067 312.655C843.067 302.31 848.849 295.069 857.316 295.069C865.575 295.069 871.357 302.31 871.357 312.655C871.357 323 865.575 330.448 857.316 330.448C848.849 330.448 843.067 323 843.067 312.655ZM887.258 312.655C887.258 302.31 893.039 295.069 901.506 295.069C909.766 295.069 915.548 302.31 915.548 312.655C915.548 323 909.766 330.448 901.506 330.448C893.039 330.448 887.258 323 887.258 312.655Z" fill="#FFFDF8"></path>
</svg>
