<?xml version="1.0" encoding="UTF-8"?><svg id="Layer_2" xmlns="http://www.w3.org/2000/svg" viewBox="0 0 495.51 54.71"><defs><style>.cls-1{stroke:#ffc94d;stroke-miterlimit:10;stroke-width:2px;}</style></defs><g id="Layer_2-2"><polygon class="cls-1" points="432.01 21.44 432.01 33.85 478.57 33.85 478.57 38.52 432.01 38.52 432.01 53.71 494.51 53.71 494.51 38.52 494.5 38.52 494.5 33.85 494.51 33.85 494.51 21.44 447.98 21.44 447.98 16.22 494.51 16.22 494.51 1.03 432.01 1.03 432.01 16.22 432.01 21.44"/><path class="cls-1" d="m64.28,1.19h-10.07v-.03h-17.67v32.08c-2.97,5.22-5.93,10.45-8.9,15.67.01-2.33.03-4.65.04-6.98l.03.04v-10.11l.07-30.71H11.36v.03H1.81l9.58,15.25.11,37.18h34.09l8.61-18.28v-18.12L64.28,1.19Z"/><polygon class="cls-1" points="113.77 17.66 113.77 1.15 68.6 1.15 58.23 17.66 58.23 17.66 58.23 39.85 58.22 53.68 113.76 53.68 113.77 37.17 77.74 37.17 77.74 33.8 104.85 33.8 104.85 21.04 77.74 21.04 77.74 17.66 113.77 17.66"/><polygon class="cls-1" points="232.83 17.66 232.83 1.15 187.66 1.15 177.28 17.66 177.28 17.66 177.28 39.85 177.28 53.68 232.82 53.68 232.83 37.17 196.79 37.17 196.79 33.8 223.91 33.8 223.91 21.04 196.79 21.04 196.79 17.66 232.83 17.66"/><polygon class="cls-1" points="117.8 1.15 117.83 17.66 135.88 17.66 135.88 53.68 146.29 53.68 155.4 53.64 155.4 17.66 171.32 17.66 182 1.15 117.8 1.15"/><path class="cls-1" d="m298.25,21.27c0-11.71-8.18-20.11-20.11-20.11h-21.77l.03,16.51h17.98c1.95,0,4.36,0,4.36,3.61s-2.4,3.61-4.36,3.61h-18.01v-7.2h.03l-10.37-16.53h-9.17v52.54h19.51v-12.31h11.48l7.28,12.31h23.12l-9.31-15.08c5.77-3.38,9.31-9.68,9.31-17.33Z"/><polygon class="cls-1" points="415.72 1.11 365.46 1.11 365.46 20.62 365.47 20.62 365.47 53.68 375.81 53.68 384.97 53.68 384.97 20.62 408.47 20.62 408.47 53.68 427.97 53.68 427.97 20.61 415.72 1.11"/><polygon class="cls-1" points="360.42 1 360.42 1 321.93 1 321.93 20.62 341.82 20.62 341.82 31.34 321.92 31.34 321.92 20.62 321.92 20.62 309.61 1 307.74 1 307.74 1 302.31 1 302.31 53.68 321.92 53.68 321.92 40.65 341.82 40.65 341.82 53.68 361.44 53.68 361.44 1 360.42 1"/></g></svg>